<?xml version="1.0" encoding="utf-8"?>
<!-- Generator: Adobe Illustrator 15.0.0, SVG Export Plug-In . SVG Version: 6.00 Build 0)  -->
<!DOCTYPE svg PUBLIC "-//W3C//DTD SVG 1.1//EN" "http://www.w3.org/Graphics/SVG/1.1/DTD/svg11.dtd">
<svg version="1.1"
	 id="svg2" xmlns:inkscape="http://www.inkscape.org/namespaces/inkscape" xmlns:sodipodi="http://sodipodi.sourceforge.net/DTD/sodipodi-0.dtd" xmlns:svg="http://www.w3.org/2000/svg" xmlns:rdf="http://www.w3.org/1999/02/22-rdf-syntax-ns#" xmlns:cc="http://creativecommons.org/ns#" xmlns:dc="http://purl.org/dc/elements/1.1/"
	 xmlns="http://www.w3.org/2000/svg" xmlns:xlink="http://www.w3.org/1999/xlink" x="0px" y="0px" width="256px" height="256px"
	 viewBox="0 0 256 256" enable-background="new 0 0 256 256" xml:space="preserve">
<path id="rect1942" fill="#E44D26" d="M210.018,10.505H45.983c-19.599,0-35.487,15.888-35.487,35.487v164.015
	c0,19.599,15.888,35.486,35.487,35.486h164.033c19.604,0,35.487-15.888,37.487-34.819V46.66
	C245.504,26.394,229.615,10.505,210.018,10.505z"/>
<path fill="#FFFFFF" d="M61.927,208.86l-14.7-164.895h161.545l-14.717,164.872l-66.155,18.34L61.927,208.86z M77.287,77.674
	l5.456,61.153h70.089l-2.346,26.231l-22.556,6.087v0.004l-0.02,0.005l-22.523-6.083l-1.44-16.129H83.645l2.834,31.752l41.427,11.501
	l0.094-0.024v-0.004l41.391-11.473l5.55-62.09h-73.703l-1.849-20.706h77.328h0.063l1.81-20.225H77.287z"/>
<g>
	
		<linearGradient id="SVGID_1_" gradientUnits="userSpaceOnUse" x1="103.2197" y1="-1077.8916" x2="103.2197" y2="-1185.4028" gradientTransform="matrix(1 0 0 -1 25.7803 -939.8906)">
		<stop  offset="0" style="stop-color:#000000;stop-opacity:0.15"/>
		<stop  offset="0.6626" style="stop-color:#000000;stop-opacity:0"/>
	</linearGradient>
	<path fill="url(#SVGID_1_)" d="M10.496,115.401v94.605c0,19.6,15.888,35.486,35.487,35.486h164.033
		c19.604,0,35.488-15.889,37.488-34.819v-95.952c-36.779,15.181-77.074,23.576-119.337,23.576
		C86.542,138.298,46.825,130.152,10.496,115.401z"/>
</g>
<linearGradient id="SVGID_2_" gradientUnits="userSpaceOnUse" x1="103.2192" y1="-951.0576" x2="103.2192" y2="-1078.6862" gradientTransform="matrix(1 0 0 -1 25.7803 -939.8906)">
	<stop  offset="0" style="stop-color:#FFFFFF;stop-opacity:0.85"/>
	<stop  offset="0.66" style="stop-color:#FFFFFF;stop-opacity:0"/>
</linearGradient>
<path fill="url(#SVGID_2_)" d="M210.018,10.505H45.983c-19.599,0-35.487,15.889-35.487,35.487v69.409
	c36.33,14.751,76.046,22.896,117.67,22.896c42.263,0,82.558-8.395,119.336-23.576V46.66
	C245.504,26.394,229.615,10.505,210.018,10.505z"/>
<g>
	<g>
		<g>
			<path fill="none" stroke="#BF4220" stroke-width="2" stroke-miterlimit="10" d="M10.496,115.401v94.605
				c0,19.6,15.888,35.486,35.486,35.486h164.034c19.604,0,35.487-15.889,37.487-34.819v-95.952"/>
		</g>
	</g>
</g>
<path fill="none" stroke="#E34E26" stroke-width="2" stroke-miterlimit="10" d="M247.503,114.721V46.66
	c-1.999-20.266-17.888-36.155-37.485-36.155H45.982c-19.599,0-35.486,15.889-35.486,35.487v69.409"/>
</svg>
