<?xml version="1.0" encoding="utf-8"?>
<!-- Generator: Adobe Illustrator 15.0.0, SVG Export Plug-In . SVG Version: 6.00 Build 0)  -->
<!DOCTYPE svg PUBLIC "-//W3C//DTD SVG 1.1//EN" "http://www.w3.org/Graphics/SVG/1.1/DTD/svg11.dtd">
<svg version="1.1"
	 id="svg2" sodipodi:version="0.32" inkscape:version="0.47 r22583" inkscape:output_extension="org.inkscape.output.svg.inkscape" xmlns:inkscape="http://www.inkscape.org/namespaces/inkscape" xmlns:sodipodi="http://sodipodi.sourceforge.net/DTD/sodipodi-0.dtd" xmlns:svg="http://www.w3.org/2000/svg" xmlns:rdf="http://www.w3.org/1999/02/22-rdf-syntax-ns#" xmlns:cc="http://creativecommons.org/ns#" xmlns:dc="http://purl.org/dc/elements/1.1/" sodipodi:docname="youtube.svg"
	 xmlns="http://www.w3.org/2000/svg" xmlns:xlink="http://www.w3.org/1999/xlink" x="0px" y="0px" width="256px" height="256px"
	 viewBox="0 0 256 256" enable-background="new 0 0 256 256" xml:space="preserve">
<path id="rect1942" inkscape:export-xdpi="7.7063322" inkscape:export-ydpi="7.7063322" inkscape:export-filename="C:\Documents and Settings\Molumen\Desktop\path3511111.png" fill="#3AA8DB" d="
	M209.018,10.505H44.983c-19.599,0-35.487,15.888-35.487,35.487v164.015c0,19.599,15.888,35.486,35.487,35.486h164.033
	c19.604,0,35.487-15.888,37.487-34.819V46.66C244.504,26.394,228.615,10.505,209.018,10.505z"/>
<linearGradient id="SVGID_1_" gradientUnits="userSpaceOnUse" x1="93.9995" y1="1181.167" x2="93.9995" y2="1308.795" gradientTransform="matrix(1 0 0 1 34 -1170)">
	<stop  offset="0" style="stop-color:#FFFFFF;stop-opacity:0.85"/>
	<stop  offset="0.66" style="stop-color:#FFFFFF;stop-opacity:0"/>
</linearGradient>
<path fill="url(#SVGID_1_)" d="M209.018,10.505H44.983c-19.599,0-35.487,15.889-35.487,35.487v69.409
	c36.33,14.751,76.046,22.896,117.671,22.896c42.263,0,82.558-8.395,119.336-23.576V46.66
	C244.504,26.394,228.615,10.505,209.018,10.505z"/>
<g>
	<path fill="#FFFFFF" d="M86.29,81.081l0.236,0.014C86.527,81.083,86.442,81.079,86.29,81.081z"/>
	<path fill="#FFFFFF" d="M59.494,96.792c0,0-2.206,38.501,21.08,52.729c-8.088,27.719-12.739,46.072-12.739,46.072
		c-8.646-1.188-12.383-0.359-18.38,1.768l1.365,4.486c4.699-1.369,9.543-3.271,16.772-1.488c6.009,7.897,6.045,19.494,5.399,27.901
		l4.64,0.513c0.898-10.047,0.499-16.438-2.79-25.131c6.798,4.447,10.397,9.557,12.92,18.696l5.187-1.646
		c-5.134-13.121-8.595-17.211-20.443-23.824l12.982-43.404c6.721,4.331,13.953,6.582,21.322,8.316l-4.429,27.99
		c-6.625-1.021-12.876-0.566-18.623,1.938l1.305,4.398c4.959-2.105,11.653-3.008,17.046-1.764
		c5.776,10.34,5.792,17.943,5.217,28.745l4.549,0.578c0.946-10.536,0.782-16.827-3.245-26.647c6.757,3.86,10.9,8.615,13.618,19.455
		l4.672-1.218c-3.004-12.26-8.51-18.337-19.382-24.041l4.671-27.952c0,0,41.733,11.832,72.549-36.791
		c8.916-14.066,13.94-23.17,21.808-29.991c15.438-13.384,36.789-15.37,39.226-15.403l-33.579-1.959c0,0-5.402-7.35-11.041-10.048
		c-5.641-2.698-14.936-6.134-28.9,0.243c-13.977,6.377-14.236,9.563-25.27,15.451c-11.027,5.888-18.613,4.526-27.935,3.43
		C90.386,84.83,39.604,46.202,15.327,26.509c-3.682,5.593-5.831,12.286-5.831,19.483v0.442
		C22.517,59.963,59.494,96.792,59.494,96.792z M183,74.605c4.143,0,7.49,3.354,7.49,7.498c0,4.143-3.35,7.497-7.49,7.497
		s-7.492-3.354-7.492-7.497C175.508,77.959,178.859,74.605,183,74.605z"/>
</g>
<g>
	
		<linearGradient id="SVGID_2_" gradientUnits="userSpaceOnUse" x1="93.9995" y1="1308.001" x2="93.9995" y2="1415.5118" gradientTransform="matrix(1 0 0 1 34 -1170)">
		<stop  offset="0" style="stop-color:#000000;stop-opacity:0.15"/>
		<stop  offset="0.6626" style="stop-color:#000000;stop-opacity:0"/>
	</linearGradient>
	<path fill="url(#SVGID_2_)" d="M9.496,115.401v94.605c0,19.6,15.888,35.486,35.487,35.486h164.033
		c19.604,0,35.488-15.889,37.488-34.819v-95.952c-36.779,15.181-77.074,23.576-119.337,23.576
		C85.542,138.298,45.825,130.152,9.496,115.401z"/>
</g>
<path fill="none" stroke="#3AA8DB" stroke-width="2" stroke-miterlimit="10" d="M246.503,114.721V46.66
	c-1.999-20.266-17.888-36.155-37.485-36.155H44.982c-19.599,0-35.486,15.889-35.486,35.487v69.409"/>
<g>
	<g>
		<path fill="none" stroke="#297499" stroke-width="2" stroke-miterlimit="10" d="M9.496,115.401v94.605
			c0,19.6,15.888,35.486,35.486,35.486h164.033c19.604,0,35.488-15.889,37.488-34.819v-95.952"/>
	</g>
</g>
</svg>
